<?xml version="1.0" encoding="UTF-8" standalone="no"?>
<svg width="16px" height="15px" viewBox="0 0 16 15" version="1.1" xmlns="http://www.w3.org/2000/svg" xmlns:xlink="http://www.w3.org/1999/xlink">
    <!-- Generator: Sketch 41.2 (35397) - http://www.bohemiancoding.com/sketch -->
    <title>Settings</title>
    <desc>Created with Sketch.</desc>
    <defs></defs>
    <g id="Page-1" stroke="none" stroke-width="1" fill="none" fill-rule="evenodd" stroke-linejoin="round">
        <g id="Settings" transform="translate(1.000000, 0.000000)" stroke="#000000">
            <path d="M9.6211,7.5 C9.6211,8.951 8.4471,10.125 6.9961,10.125 C5.5471,10.125 4.3711,8.951 4.3711,7.5 C4.3711,6.05 5.5471,4.875 6.9961,4.875 C8.4471,4.875 9.6211,6.05 9.6211,7.5 L9.6211,7.5 Z" id="circle"></path>
            <path d="M12.6836,7.5 C12.6836,7.092 12.6386,6.694 12.5566,6.31 L13.9336,5.516 L12.1836,2.484 L10.8326,3.283 C10.2446,2.751 9.6836,2.339 8.8086,2.09 L8.8086,0.5 L5.3086,0.5 L5.3086,2.09 C4.4336,2.339 3.8096,2.751 3.2216,3.283 L1.8246,2.484 L0.0666,5.516 L1.4396,6.31 C1.3576,6.694 1.3106,7.092 1.3106,7.5 C1.3106,7.908 1.3546,8.307 1.4356,8.69 L0.0586,9.484 L1.8086,12.516 L3.2216,11.718 C3.8096,12.249 4.4336,12.661 5.3086,12.911 L5.3086,14.5 L8.8086,14.5 L8.8086,12.911 C9.6836,12.661 10.2446,12.249 10.8336,11.718 L12.1986,12.516 L13.9406,9.484 L12.5616,8.69 C12.6426,8.307 12.6836,7.908 12.6836,7.5 L12.6836,7.5 Z" id="gear"></path>
        </g>
    </g>
</svg>