<?xml version="1.0" encoding="UTF-8" standalone="no"?>
<svg width="232px" height="262px" viewBox="-34 -19 300 300" version="1.1" xmlns="http://www.w3.org/2000/svg" xmlns:xlink="http://www.w3.org/1999/xlink">
    <title>Storj</title>
    <defs></defs>
    <g id="Page-1" stroke="none" stroke-width="1" fill="none" fill-rule="evenodd">
        <g id="Storj">
            <g id="rotate">
                <path d="M231.781768,75.7370924 C231.571017,83.9152666 228.021347,90.0089242 221.170729,94.1166479 C219.907966,94.8725638 219.46835,95.6420654 219.471834,97.0831825 C219.515029,119.391411 219.512939,141.701729 219.478104,164.00508 C219.476014,165.34448 219.817395,166.154041 221.045672,166.86502 C228.973035,171.442318 232.982524,179.891507 231.558825,188.770558 C230.193648,197.281056 223.391101,204.273104 214.579978,205.947267 C209.471449,206.920552 204.522464,206.144432 200.044446,203.397705 C198.680663,202.562366 197.718524,202.707975 196.440086,203.448216 C177.261419,214.555651 158.0622,225.636264 138.842777,236.675423 C137.527762,237.429249 137.034849,238.262498 137.036591,239.794534 C137.058188,250.528888 128.773768,259.870894 118.424338,260.910366 C107.402945,262.020552 97.6582482,255.098173 95.2772873,244.399002 C94.9118698,242.755146 94.7885545,241.038486 94.7505846,239.352131 C94.7237617,238.213729 94.4064164,237.513897 93.3934194,236.925537 C73.9061161,225.717429 54.4358818,214.481453 34.9743563,203.226318 C33.9199059,202.613921 33.0918818,202.611134 32.0297677,203.252095 C19.3136596,210.906702 3.10361758,203.568047 0.408098065,189.268348 C-1.29462866,180.235675 2.38288485,171.785789 10.4673533,167.029789 C11.7454434,166.277008 12.323005,165.516216 12.3202182,163.953873 C12.2623924,141.645297 12.2707527,119.33672 12.3059359,97.0302335 C12.3069809,95.6894407 11.9589809,94.8976449 10.7320981,94.1849242 C2.61383981,89.4703777 -1.20370974,81.2779212 0.354800767,72.0797831 C1.90251248,62.9429542 8.96945542,56.2403837 18.1644584,54.9312906 C23.0935876,54.2304137 27.8457557,55.1281074 32.1116296,57.8507981 C33.1016356,58.4840954 33.838044,58.4645879 34.8465125,57.8835428 C54.2516056,46.6538371 73.6716776,35.4572245 93.1077737,24.2849963 C94.2824044,23.6095488 94.7404824,22.8330804 94.7439659,21.4483957 C94.777059,9.16110439 104.484134,-0.242559274 116.787101,0.0047680538 C126.375389,0.196707994 135.346056,8.11118247 136.70775,17.5733687 C136.83211,18.4435428 137.027185,18.9789542 137.027185,20.1772726 C137.027185,22.7999873 137.992807,23.9129602 140.036218,25.0795789 C158.894056,35.869669 177.698945,46.7451044 196.49408,57.6400473 C197.784362,58.3889963 198.723509,58.4213927 200.067437,57.6578131 C212.832663,50.3762876 228.310128,57.3540533 231.417395,71.761741 C231.70757,73.1021855 231.679702,74.5122996 231.781768,75.7370924 Z" id="Background" fill="#2684FF"></path>
                <rect id="Rectangle" fill="#FFFFFF" x="109.033033" y="26.1261261" width="13.9339339" height="209.009009"></rect>
                <rect id="Rectangle-Copy" fill="#FFFFFF" transform="translate(116.000000, 130.630631) rotate(-300.000000) translate(-116.000000, -130.630631) " x="109.033033" y="26.1261261" width="13.9339339" height="209.009009"></rect>
                <rect id="Rectangle-Copy-2" fill="#FFFFFF" transform="translate(116.000000, 130.630631) rotate(-240.000000) translate(-116.000000, -130.630631) " x="109.033033" y="26.1261261" width="13.9339339" height="209.009009"></rect>
                <ellipse id="Oval" fill="#FFFFFF" cx="20.9009009" cy="75.5915916" rx="17.4174174" ry="17.4174174"></ellipse>
                <ellipse id="Oval-Copy-4" fill="#FFFFFF" cx="116" cy="21.2492492" rx="17.4174174" ry="17.4174174"></ellipse>
                <ellipse id="Oval-Copy-5" fill="#FFFFFF" cx="116" cy="239.663664" rx="17.4174174" ry="17.4174174"></ellipse>
                <ellipse id="Oval-Copy" fill="#FFFFFF" cx="210.054054" cy="75.5915916" rx="17.4174174" ry="17.4174174"></ellipse>
                <ellipse id="Oval-Copy-3" fill="#FFFFFF" cx="20.9009009" cy="184.972973" rx="17.4174174" ry="17.4174174"></ellipse>
                <circle id="Oval-Copy-2" fill="#FFFFFF" cx="210.054054" cy="184.972973" r="17.4174174"></circle>
                <path d="M205.177178,184.992852 C205.176133,182.154161 207.218499,180.088107 210.014691,180.096119 C212.706727,180.106918 214.998163,182.329729 215.025682,184.960456 C215.054943,187.491206 212.606054,189.938702 210.053358,189.942882 C207.32161,189.942882 205.179268,187.768492 205.177178,184.992852 Z" id="Shape" fill="#2684FF"></path>
                <path d="M111.123148,21.2489016 C111.133947,18.4976463 113.278031,16.3751598 116.050884,16.3723731 C118.825478,16.3709797 120.955628,18.4875442 120.96573,21.250295 C120.973394,23.8980908 118.661754,26.238295 116.058896,26.2069436 C113.413538,26.1811659 111.114439,23.8677845 111.123148,21.2489016 Z" id="Shape" fill="#2684FF"></path>
                <path d="M25.8649328,185.015123 C25.8548307,187.783796 23.6919359,189.964805 20.9758638,189.943207 C18.4088848,189.919868 16.0355875,187.524625 16.024092,184.938486 C16.0094614,182.357225 18.3583743,180.096096 21.0528488,180.096096 C23.8459058,180.098186 25.87608,182.173297 25.8649328,185.015123 Z" id="Shape" fill="#2684FF"></path>
                <path d="M116.103794,234.786914 C118.87386,234.806073 120.978581,236.91358 120.964647,239.65543 C120.948274,242.388223 118.810809,244.444175 116.004863,244.428151 C113.220515,244.411779 111.092455,242.287899 111.123458,239.556848 C111.155157,236.840776 113.323974,234.768103 116.103794,234.786914 Z" id="Shape" fill="#2684FF"></path>
                <path d="M21.1103803,80.3503714 C18.3037377,80.3758008 16.1087947,78.3313443 16.0262362,75.6177107 C15.944026,72.9747918 18.1637016,70.7558128 20.932026,70.7154044 C23.8198338,70.6729059 25.828062,72.5982272 25.8688188,75.4466717 C25.9106206,78.3073083 23.9518578,80.325987 21.1103803,80.3503714 Z" id="Shape" fill="#2684FF"></path>
                <path d="M209.954363,80.35474 C207.117066,80.3334907 205.149943,78.3130703 205.177462,75.4513886 C205.207072,72.6109562 207.219829,70.6779712 210.10903,70.7152445 C212.878051,70.7528661 215.082748,72.9526859 215.018303,75.6091904 C214.951769,78.3026198 212.742195,80.3738991 209.954363,80.35474 Z" id="Shape" fill="#2684FF"></path>
                <animateTransform
                    attributeType="xml"
                    attributeName="transform"
                    type="rotate"
                    from="0 116 131"
                    to="360 116 131"
                    dur="1.4s"
                    repeatCount="indefinite"
                />
            </g>
            <g id="cloud_border" transform="translate(60.612613, 90.222222)">
                <path d="M72.561761,2.52569937 C86.4685761,7.14404204 95.6206835,17.3110218 98.7961338,31.5668667 C107.277004,37.0630089 112.086835,47.6480572 110.223921,57.3072879 C107.999538,68.8374428 99.9005473,77.2774804 88.7106528,79.0500805 C83.5129461,79.876395 78.4516416,79.3391603 73.8569289,77.2281055 C62.5532105,81.3380959 51.2463046,80.4540044 40.7848386,74.5876347 C23.4526345,79.0005866 5.7895537,68.8322174 1.3427116,51.3695477 C-3.88537263,30.8258926 12.0984382,10.9315769 33.0914081,11.2979239 C44.3361327,0.910467331 58.167687,-2.25626089 72.561761,2.52569937 Z" fill="#FFFFFF"></path>
                <path d="M33.5489456,21.0696792 C18.6835282,20.4067723 7.10024892,34.4448624 10.7951799,48.9640216 C14.0201889,61.6285741 27.2274681,68.8331147 39.9258105,64.6860276 C41.4240567,64.1955531 42.5816183,64.263481 43.9656063,65.1347003 C52.976333,70.8026762 62.4569817,71.5011147 72.2487054,67.3853789 C73.7737744,66.7465081 74.9435282,66.6465321 76.4194802,67.556418 C79.7159006,69.5869405 83.4345192,70.0126222 87.1792639,69.4172949 C94.2117204,68.3032768 99.183348,63.0453069 100.646759,55.4596732 C101.776453,49.6021958 98.4887414,42.5707843 92.7824471,39.3206943 C90.7860627,38.1822918 89.9068315,36.839409 89.4682609,34.6047543 C87.219324,23.1946042 80.4324531,15.4170306 69.4876964,11.7823639 C58.3551799,8.08394951 48.2151078,10.5575711 39.6206573,18.5451988 C37.6298465,20.3945801 36.2730297,21.311433 33.5489456,21.0696792 Z" id="cloud_inner" fill="#2684FF"></path>
            </g>
        </g>
    </g>
</svg>