<?xml version="1.0" encoding="UTF-8" standalone="no"?>
<svg width="190px" height="56px" viewBox="0 0 190 56" version="1.1" xmlns="http://www.w3.org/2000/svg" xmlns:xlink="http://www.w3.org/1999/xlink">
    <!-- Generator: Sketch 41.2 (35397) - http://www.bohemiancoding.com/sketch -->
    <title>logo-storjshare-blue</title>
    <desc>Created with Sketch.</desc>
    <defs></defs>
    <g id="Page-1" stroke="none" stroke-width="1" fill="none" fill-rule="evenodd">
        <g id="Screen5-Copy-15" transform="translate(-53.000000, -34.000000)">
            <g id="logo-storjshare-blue" transform="translate(53.000000, 34.000000)">
                <path d="M137.044118,22.3338661 C136.719679,21.8832924 136.303556,21.5207268 135.795737,21.2461585 C135.287919,20.9715901 134.674314,20.834308 133.954904,20.834308 C133.588146,20.834308 133.214341,20.8906289 132.833477,21.0032723 C132.452613,21.1159157 132.107019,21.2883984 131.796686,21.5207254 C131.486352,21.7530525 131.235973,22.045217 131.045541,22.3972277 C130.855109,22.7492384 130.759895,23.1646048 130.759895,23.6433393 C130.759895,24.1220738 130.851583,24.51632 131.034962,24.8260893 C131.218341,25.1358586 131.461667,25.3998627 131.764947,25.6181094 C132.068228,25.836356 132.413822,26.0158788 132.801739,26.156683 C133.189655,26.2974873 133.595199,26.4382895 134.018381,26.5790937 C134.540306,26.7480588 135.065749,26.9311016 135.594727,27.1282277 C136.123704,27.3253538 136.599777,27.5823177 137.022959,27.8991272 C137.446141,28.2159368 137.791735,28.6172229 138.05975,29.1029978 C138.327766,29.5887726 138.461771,30.2047821 138.461771,30.9510446 C138.461771,31.6973072 138.317186,32.3414772 138.028012,32.8835737 C137.738837,33.4256701 137.365032,33.8727171 136.906585,34.2247277 C136.448138,34.5767383 135.926221,34.8372225 135.340819,35.0061875 C134.755417,35.1751525 134.166497,35.2596339 133.574042,35.2596339 C133.122648,35.2596339 132.67126,35.2138731 132.219866,35.1223504 C131.768472,35.0308278 131.338243,34.8935456 130.929167,34.7105 C130.520091,34.5274544 130.139233,34.2951308 129.786581,34.0135223 C129.433929,33.7319138 129.1236,33.4080688 128.855585,33.0419777 L130.167443,32.070433 C130.491882,32.6054892 130.946796,33.0525362 131.532198,33.4115871 C132.1176,33.7706379 132.805261,33.9501607 133.595201,33.9501607 C133.976065,33.9501607 134.363976,33.8903199 134.758946,33.7706362 C135.153916,33.6509524 135.510089,33.4679097 135.827476,33.2215022 C136.144862,32.9750948 136.405821,32.6723701 136.610359,32.3133192 C136.814897,31.9542683 136.917164,31.5353819 136.917164,31.0566473 C136.917164,30.5356714 136.814897,30.1027047 136.610359,29.7577344 C136.405821,29.412764 136.134283,29.1241196 135.795737,28.8917924 C135.457191,28.6594652 135.06928,28.4658625 134.631992,28.3109777 C134.194704,28.1560929 133.736264,28.0012107 133.256657,27.8463259 C132.762945,27.6914411 132.276292,27.5154386 131.796686,27.3183125 C131.317079,27.1211864 130.886851,26.8642225 130.505987,26.5474129 C130.125123,26.2306034 129.818321,25.8398773 129.58557,25.3752232 C129.35282,24.9105691 129.236447,24.3403203 129.236447,23.6644598 C129.236447,22.946358 129.381032,22.3268285 129.670206,21.8058527 C129.959381,21.2848769 130.336713,20.8554303 130.802213,20.5175 C131.267713,20.1795697 131.782577,19.933166 132.34682,19.7782812 C132.911063,19.6233965 133.468244,19.5459554 134.018381,19.5459554 C135.034018,19.5459554 135.901529,19.7254781 136.620938,20.084529 C137.340348,20.4435799 137.883423,20.8695065 138.250181,21.3623214 L137.044118,22.3338661 L137.044118,22.3338661 Z M140.700547,19.926125 L142.223995,19.926125 L142.223995,26.4101295 L150.391369,26.4101295 L150.391369,19.926125 L151.914817,19.926125 L151.914817,34.8794643 L150.391369,34.8794643 L150.391369,27.8040848 L142.223995,27.8040848 L142.223995,34.8794643 L140.700547,34.8794643 L140.700547,19.926125 L140.700547,19.926125 Z M154.767204,34.8794643 L153.095643,34.8794643 L159.570297,19.926125 L161.051427,19.926125 L167.483763,34.8794643 L165.791043,34.8794643 L164.140641,30.9510446 L156.396447,30.9510446 L154.767204,34.8794643 L154.767204,34.8794643 Z M156.96774,29.5570893 L163.569348,29.5570893 L160.268544,21.6157679 L156.96774,29.5570893 L156.96774,29.5570893 Z M170.188037,34.8794643 L168.664589,34.8794643 L168.664589,19.926125 L173.065661,19.926125 C173.799177,19.926125 174.479784,19.9965261 175.107505,20.1373304 C175.735225,20.2781346 176.2783,20.5069382 176.736748,20.8237478 C177.195195,21.1405574 177.551368,21.5524037 177.805277,22.0592991 C178.059187,22.5661945 178.186139,23.185724 178.186139,23.9179062 C178.186139,24.467043 178.087398,24.9668905 177.889913,25.4174643 C177.692428,25.8680381 177.424417,26.2587639 177.085871,26.589654 C176.747325,26.9205441 176.345308,27.184548 175.879808,27.3816741 C175.414308,27.5788002 174.906497,27.7055222 174.35636,27.7618437 L178.736273,34.8794643 L176.874281,34.8794643 L172.727117,27.888567 L170.188037,27.888567 L170.188037,34.8794643 L170.188037,34.8794643 Z M170.188037,26.5790937 L172.832912,26.5790937 C174.06014,26.5790937 175.005233,26.3573304 175.668218,25.9137969 C176.331204,25.4702633 176.662691,24.8049731 176.662691,23.9179062 C176.662691,23.4250913 176.571003,23.0097249 176.387624,22.6717946 C176.204245,22.3338644 175.95034,22.0593002 175.6259,21.8480937 C175.30146,21.6368873 174.906496,21.482005 174.440996,21.383442 C173.975496,21.284879 173.460632,21.2355982 172.896389,21.2355982 L170.188037,21.2355982 L170.188037,26.5790937 L170.188037,26.5790937 Z M181.842568,33.52775 L189.861829,33.52775 L189.861829,34.8794643 L180.31912,34.8794643 L180.31912,19.926125 L189.607921,19.926125 L189.607921,21.2778393 L181.842568,21.2778393 L181.842568,26.43125 L189.100105,26.43125 L189.100105,27.7618437 L181.842568,27.7618437 L181.842568,33.52775 L181.842568,33.52775 Z" id="SHARE" fill="#2684FF"></path>
                <g id="Group" transform="translate(57.437582, 19.357143)" fill="#2683FF">
                    <path d="M4.73961629,3.54545089 C4.4178975,3.80958482 4.25729304,4.15896429 4.25729304,4.59384375 C4.25729304,5.02897768 4.45384231,5.37454018 4.84668594,5.63154911 C5.23952957,5.88804911 6.14681735,6.19137054 7.56829435,6.54049554 C8.99002628,6.889875 10.0936084,7.41381696 10.8795506,8.11257589 C11.6649829,8.81133482 12.0583364,9.83097321 12.0583364,11.1714911 C12.0583364,12.5125179 11.5545992,13.5993348 10.5473798,14.4334688 C9.54016032,15.2678571 8.21479106,15.6849241 6.57203679,15.6849241 C4.20044415,15.6849241 2.06440473,14.8077857 0.164428384,13.0537634 L2.15745335,10.6154866 C3.77165572,12.0272545 5.26451248,12.7331384 6.63627858,12.7331384 C7.25014455,12.7331384 7.73246781,12.600817 8.0827385,12.337192 C8.43249934,12.0733125 8.60788962,11.716808 8.60788962,11.2676786 C8.60788962,10.8182946 8.42204731,10.4620446 8.05061761,10.1981652 C7.67893298,9.93428571 6.94321156,9.66709821 5.84345335,9.39583929 C4.10000263,8.98233482 2.82510907,8.44388839 2.01826281,7.78075446 C1.2109067,7.117875 0.80735611,6.07686161 0.80735611,4.65771429 C0.80735611,3.23882143 1.31797635,2.144625 2.33972668,1.37436161 C3.36096715,0.604098214 4.63611564,0.21909375 6.16491721,0.21909375 C7.16474376,0.21909375 8.16508016,0.39009375 9.16541656,0.732348214 C10.1649882,1.07485714 11.0365861,1.55961161 11.7797004,2.187375 L10.0867254,4.62565179 C8.78633903,3.64163839 7.44363469,3.14975893 6.05784757,3.14975893 C5.50032063,3.14975893 5.06108016,3.28182589 4.73961629,3.54545089 L4.73961629,3.54545089 L4.73961629,3.54545089 Z" id="Shape"></path>
                    <polygon id="Shape" points="20.3508804 3.44951786 20.3508804 15.5139241 17.0080131 15.5139241 17.0080131 3.44951786 12.7649961 3.44951786 12.7649961 0.561602679 24.5941524 0.561602679 24.5941524 3.44951786"></polygon>
                    <path d="M38.4594166,13.4494554 C36.9448909,14.9256027 35.0803495,15.6638036 32.8657924,15.6638036 C30.6512352,15.6638036 28.7869488,14.9256027 27.2724231,13.4494554 C25.7581524,11.9735625 25.0010171,10.1376027 25.0010171,7.94132143 C25.0010171,5.74504018 25.7581524,3.90882589 27.2724231,2.4331875 C28.7869488,0.957294643 30.6509803,0.21909375 32.8657924,0.21909375 C35.0803495,0.21909375 36.9448909,0.957294643 38.4594166,2.4331875 C39.9734323,3.90933482 40.7308226,5.74529464 40.7308226,7.94132143 C40.7308226,10.1373482 39.9734323,11.973817 38.4594166,13.4494554 L38.4594166,13.4494554 L38.4594166,13.4494554 Z M37.3234586,7.95200893 C37.3234586,6.619125 36.8946702,5.48166964 36.0376032,4.54040625 C35.1805361,3.59914286 34.1266649,3.12863839 32.8770092,3.12863839 C31.6265887,3.12863839 30.5732273,3.59939732 29.7161603,4.54040625 C28.8590933,5.48141518 28.4305598,6.61887054 28.4305598,7.95200893 C28.4305598,9.28591071 28.8590933,10.4195491 29.7161603,11.3529241 C30.5734823,12.2875714 31.6265887,12.7545134 32.8770092,12.7545134 C34.1269198,12.7545134 35.1805361,12.2875714 36.0376032,11.3529241 C36.8949251,10.4195491 37.3234586,9.28565625 37.3234586,7.95200893 L37.3234586,7.95200893 L37.3234586,7.95200893 Z" id="Shape"></path>
                    <path d="M54.9387096,5.52441964 C54.9387096,7.92020089 53.988339,9.46759821 52.0886176,10.1663571 L55.8814323,15.5139241 L51.7668988,15.5139241 L48.4454455,10.7437366 L46.1307017,10.7437366 L46.1307017,15.5139241 L42.7878344,15.5139241 L42.7878344,0.561857143 L48.4668594,0.561857143 C50.7951143,0.561857143 52.4559685,0.954241071 53.448912,1.73824554 C54.4421104,2.52250446 54.9387096,3.78439286 54.9387096,5.52441964 L54.9387096,5.52441964 L54.9387096,5.52441964 Z M50.9098318,7.29981696 C51.3238344,6.9290625 51.5310907,6.34074107 51.5310907,5.53510714 C51.5310907,4.72947321 51.3169514,4.17652232 50.8884179,3.87727232 C50.4601393,3.57751339 49.7101419,3.42814286 48.6381708,3.42814286 L46.1309566,3.42814286 L46.1309566,7.85582143 L48.574184,7.85582143 C49.7165151,7.85582143 50.4950644,7.67082589 50.9098318,7.29981696 L50.9098318,7.29981696 L50.9098318,7.29981696 Z" id="Shape"></path>
                    <path d="M57.9817819,3.42788839 L57.9817819,0.561348214 L65.7820604,0.561348214 L65.7820604,10.3157277 C65.7820604,12.0985045 65.3211511,13.4318973 64.3998423,14.3161607 C63.4782786,15.2004241 62.2961787,15.6419196 60.8532878,15.6419196 C59.0529882,15.6419196 57.4811038,14.9505402 56.1383995,13.5672723 L57.8742024,11.1714911 C58.7746071,12.1415089 59.7173298,12.6262634 60.7031353,12.6262634 C61.1747516,12.6262634 61.5783022,12.4445759 61.914042,12.080692 C62.249272,11.7170625 62.4177792,11.1717455 62.4177792,10.4442321 L62.4177792,3.42814286 L57.9817819,3.42788839 L57.9817819,3.42788839 L57.9817819,3.42788839 L57.9817819,3.42788839 Z" id="Shape"></path>
                </g>
                <g id="Group" fill="#2683FF">
                    <path d="M48.987123,16.1344451 C48.9428752,17.8765779 48.1926407,19.1749551 46.7448241,20.0500081 C46.4776072,20.210966 46.3849093,20.3749138 46.3856509,20.68188 C46.3947971,25.4343743 46.3940555,30.1871177 46.3868869,34.9386154 C46.3863925,35.2241537 46.4585732,35.3963239 46.7183744,35.5470662 C48.3933625,36.5227801 49.2409915,38.322469 48.9401561,40.2143475 C48.6516804,42.0272419 47.2139988,43.5164764 45.3516375,43.8730256 C44.2718931,44.0805766 43.2260143,43.9153829 42.2797548,43.3301041 C41.9912791,43.1522032 41.7880855,43.1835975 41.517655,43.3405688 C37.4644112,45.7070987 33.406718,48.0673995 29.344328,50.4187306 C29.0664817,50.5799377 28.9624129,50.7568419 28.9631545,51.0837409 C28.9673568,53.3702901 27.2164801,55.3600888 25.0293055,55.581842 C22.6997471,55.8187939 20.6401248,54.3432633 20.1368374,52.0646872 C20.0597128,51.7143671 20.0337574,51.3481006 20.0258472,50.9895581 C20.0199145,50.7466263 19.9531721,50.5978772 19.7388547,50.4727985 C15.6203516,48.0848408 11.5053093,45.6911524 7.39199733,43.2939757 C7.16927533,43.1631663 6.99426182,43.1621696 6.76956226,43.2992081 C4.08181942,44.9299659 0.656201795,43.3667307 0.0861719042,40.3202408 C-0.273495698,38.3957223 0.503682956,36.5962826 2.21253666,35.5826962 C2.48247276,35.4219875 2.60458671,35.2602821 2.60409232,34.9276523 C2.59173261,30.1746597 2.59371016,25.4226637 2.60112599,20.6704186 C2.60137318,20.3848803 2.5277093,20.2159492 2.26840255,20.0642102 C0.552874608,19.0598428 -0.254214549,17.3147201 0.0752953581,15.3553191 C0.402580517,13.4088745 1.89588085,11.9809336 3.83932188,11.7018734 C4.88099836,11.552626 5.8855957,11.7439816 6.78686586,12.3240281 C6.99623937,12.4590733 7.15172454,12.4548375 7.36480597,12.3310046 C11.4660054,9.93881113 15.5704184,7.55334504 19.6780449,5.17336048 C19.9264751,5.02934551 20.0233752,4.86415185 20.0241168,4.56914539 C20.030791,1.95171054 22.0827503,-0.0520411133 24.6827392,0.00103015033 C26.7092375,0.0418925317 28.6054645,1.72796408 28.8929513,3.74367546 C28.9191539,3.92905114 28.9604354,4.04316681 28.9604354,4.29830754 C28.9604354,4.85717535 29.1646178,5.09412733 29.5962189,5.34278987 C33.5819787,7.64154798 37.5566147,9.95824568 41.5285315,12.2789299 C41.801434,12.4388912 41.9996837,12.4453694 42.2839571,12.2829165 C44.9818349,10.7318902 48.2529561,12.2183839 48.9097512,15.2875474 C48.9715498,15.5730857 48.9656171,15.8735737 48.987123,16.1344451 L48.987123,16.1344451 L48.987123,16.1344451 Z M13.8143506,32.4377878 C13.7735635,32.4734178 13.746125,32.5033171 13.7120122,32.5225025 C11.4761404,33.8248663 9.24199894,35.1294726 6.99796973,36.4163885 C6.87387823,36.4873993 6.63286386,36.4726988 6.5067948,36.3959573 C5.91377584,36.0351723 5.28219459,35.7954796 4.59103953,35.7767925 C2.29163881,35.7174922 0.893261061,37.6106165 0.814653296,39.2553273 C0.72368582,41.1818391 2.16977206,43.1551931 4.50847665,43.1375027 C6.55944717,43.1220547 8.12023153,41.4643875 8.0999616,39.3961032 C8.09674808,39.0265976 8.20452476,38.8175517 8.52612445,38.6334218 C10.9090768,37.2657778 13.2823886,35.8816892 15.6534756,34.4941124 C15.8826247,34.3593164 16.0670316,34.3371411 16.3164506,34.4557416 C17.7951664,35.156382 19.3243099,35.2749825 20.9006675,34.8257455 C21.0573887,34.7813949 21.2655262,34.8262438 21.4222474,34.8937664 C21.8857365,35.0925968 22.3284614,35.3452459 22.7949169,35.5341098 C23.0608979,35.642744 23.1506294,35.7890014 23.150135,36.0737923 C23.1419776,39.8199258 23.1427192,43.5650627 23.1493934,47.3109471 C23.1496406,47.5753068 23.0670778,47.7258 22.8280409,47.8411615 C21.575755,48.4496123 20.6307314,50.0195749 20.888555,51.6986699 C21.18766,53.6493503 23.1758432,55.1223893 25.0945648,54.7441631 C26.784879,54.4115334 27.8952754,53.2482013 28.1330763,51.458728 C28.2939997,50.2450655 27.7148236,48.6429611 26.166399,47.8406631 C25.9562839,47.7325273 25.8403498,47.6141759 25.8410914,47.354052 C25.8487544,43.7155559 25.849496,40.0770598 25.8410914,36.4393113 C25.8410914,36.1159005 25.9884192,36.0496237 26.269479,35.9995423 C27.0110617,35.8684837 27.7543747,35.7237213 28.4791482,35.5186619 C28.8071749,35.425974 29.0662345,35.4127685 29.3841263,35.5508036 C30.973338,36.2397334 32.5205266,36.1218803 34.0007257,35.221413 C34.2120768,35.0938426 34.3636068,35.0881119 34.5756995,35.2129415 C36.5310058,36.3605764 38.4895257,37.5034773 40.4569446,38.6291861 C40.7753307,38.8108243 40.8981862,39.011648 40.8887929,39.3873826 C40.8319382,41.5645502 42.715311,43.3430604 44.9111374,43.1071051 C47.0669182,42.876133 48.5943314,40.7846767 48.0942574,38.6697993 C47.4948114,36.135335 44.7712254,34.9916866 42.5711968,36.3615731 C42.3393286,36.505588 42.1717309,36.5449555 41.9242895,36.3989472 C40.0626698,35.3026394 38.1966005,34.2138064 36.3228683,33.1386773 C36.0457635,32.9799618 36.0089316,32.8324586 36.0971799,32.5332164 C36.6622659,30.6141795 36.2781261,28.9069292 34.9148499,27.436631 C34.6483746,27.1490994 33.3980662,25.1366271 33.2237942,24.7656265 C33.0858598,24.4721151 33.1444449,24.3153929 33.4217968,24.1549333 C36.2628001,22.5149565 39.099601,20.8667574 41.9314581,19.2108343 C42.1596184,19.0780315 42.314362,19.0757891 42.53832,19.2272789 C43.3365101,19.7672105 44.2313532,19.9381348 45.1701969,19.7724429 C46.9977038,19.4495304 48.3221705,17.7826442 48.1592695,15.8150209 C47.9820313,13.6804598 45.9048582,12.0848336 43.830157,12.5477745 C42.0095715,12.9541559 40.8658038,14.3883258 40.8868153,16.273726 C40.8897816,16.5948944 40.8012861,16.7780276 40.5170127,16.9419755 C37.6401663,18.6011377 34.7704885,20.2715121 31.9060018,21.9518529 C31.6476838,22.1030936 31.5065359,22.0716993 31.2986456,21.869879 C29.9489651,20.5592929 28.324899,19.8232717 26.4721783,19.589808 C25.8467769,19.5105748 25.8465297,19.5138139 25.8465297,18.8632549 C25.8462825,15.4532393 25.8546871,12.0432238 25.8363947,8.63345738 C25.8339228,8.15756013 25.9441714,7.88173905 26.3866491,7.62560169 C27.9728944,6.70694559 28.5758011,4.72935583 27.8500389,3.04303511 C27.1180968,1.34201391 25.2483196,0.433324246 23.4947238,0.971760869 C21.8985906,1.46186028 21.0089386,2.59828298 20.8524647,4.25221278 C20.7320811,5.52841471 21.3310327,6.94614002 22.7761302,7.74220897 C22.9981106,7.86429779 23.1528542,7.97168613 23.1518654,8.27865231 C23.1400001,12.0382406 23.1407416,15.7970813 23.150135,19.5566696 C23.1506294,19.854666 23.0159086,19.9555761 22.7748942,20.0786616 C22.0533342,20.4451772 21.2791219,20.7658472 20.6665746,21.276627 C19.9598463,21.8643975 19.2993433,22.2042529 18.3155103,22.2042529 C18.2195989,22.201263 18.1578004,22.2104819 18.0579339,22.2084886 C17.8142004,22.2032562 17.5403092,22.1930406 17.3408235,22.0781775 C14.4390104,20.4100455 11.5522762,18.7145059 8.64675524,17.0518554 C8.23171613,16.8146543 8.0314888,16.560261 8.10070319,16.0783839 C8.12838894,15.8862809 8.06955671,15.680474 8.03841024,15.4826403 C7.75487846,13.6814564 6.00721526,12.1747807 3.89765972,12.5241042 C1.82814963,12.8674479 0.514065114,14.7550906 0.855687538,16.775536 C1.29124377,19.3558459 4.21258516,20.6619471 6.41656891,19.2504509 C6.6652463,19.0912371 6.83729348,19.078779 7.09215073,19.2285247 C9.27635894,20.5126998 11.4697133,21.7816761 13.6601014,23.0556356 C14.0355894,23.2741496 14.4095943,23.4941587 14.7826104,23.7124236 C12.2664203,26.3998726 11.9838773,29.2864012 13.8143506,32.4377878 L13.8143506,32.4377878 L13.8143506,32.4377878 Z" id="Shape"></path>
                    <path d="M19.8431293,23.7900012 C20.421686,23.840926 20.7094746,23.6473622 21.1320941,23.256279 C22.9566585,21.5680954 25.1092373,21.0454976 27.4726293,21.8269222 C29.796292,22.5952448 31.2372212,24.2391782 31.7144684,26.6509398 C31.8078321,27.1231072 31.9945594,27.4071492 32.4181722,27.6476826 C33.6299134,28.3346738 34.3274095,29.8208885 34.088041,31.0589063 C33.7774082,32.6620504 32.7216041,33.7734978 31.2287787,34.009087 C30.4332011,34.1354103 29.6440795,34.044685 28.9443486,33.6160263 C28.630736,33.4234512 28.3826767,33.4444639 28.0586353,33.5794395 C25.9803005,34.4496118 23.9675189,34.3017814 22.0543086,33.1040584 C21.7605607,32.919394 21.5147362,32.9050559 21.1966541,33.0088833 C18.5007782,33.8857302 15.6968886,32.3624343 15.0123044,29.6861601 C14.2279007,26.6170723 16.6868911,23.6498342 19.8431293,23.7900012 L19.8431293,23.7900012 L19.8431293,23.7900012 Z" id="Shape"></path>
                    <path d="M43.494382,39.6346967 C43.494382,38.9993937 43.950774,38.5380209 44.5758609,38.5393286 C45.1776706,38.5424672 45.6905558,39.0391492 45.6965713,39.6271118 C45.7031098,40.1931043 45.155178,40.7405268 44.5847534,40.741573 C43.9740513,40.741573 43.4946436,40.255353 43.494382,39.6346967 L43.494382,39.6346967 L43.494382,39.6346967 Z" id="Shape"></path>
                    <path d="M23.6741622,4.39528961 C23.6765172,3.77926849 24.1564253,3.30389505 24.7765899,3.30337122 C25.3978013,3.30284739 25.8740459,3.77717318 25.8764009,4.39555152 C25.877971,4.98852423 25.3606437,5.51287555 24.7786833,5.50554196 C24.187041,5.49977986 23.6723305,4.98171448 23.6741622,4.39528961 L23.6741622,4.39528961 L23.6741622,4.39528961 Z" id="Shape"></path>
                    <path d="M5.50560886,39.6391229 C5.50325354,40.2592462 5.01936567,40.7465047 4.41143083,40.7415354 C3.8369939,40.7360429 3.30599958,40.2006601 3.30338256,39.6226455 C3.30050383,39.045154 3.8260024,38.5393258 4.42896489,38.5393258 C5.05364869,38.5398489 5.50796418,39.0035683 5.50560886,39.6391229 L5.50560886,39.6391229 L5.50560886,39.6391229 Z" id="Shape"></path>
                    <path d="M24.7887876,50.1011599 C25.408481,50.105436 25.87927,50.5867632 25.8763914,51.2132101 C25.8724659,51.8372517 25.3946112,52.3073542 24.7665436,52.3033453 C24.1437098,52.3001383 23.6674252,51.8153368 23.6742293,51.1907607 C23.6812951,50.5696588 24.166739,50.0963493 24.7887876,50.1011599 L24.7887876,50.1011599 L24.7887876,50.1011599 Z" id="Shape"></path>
                    <path d="M4.44130017,17.0673657 C3.81332245,17.0729791 3.3224532,16.6054679 3.30387553,15.9855946 C3.28529786,15.3814921 3.78192357,14.8744202 4.40100493,14.8653319 C5.04729866,14.8554418 5.49630273,15.2954208 5.50546073,15.9463012 C5.51514206,16.6003891 5.07686594,17.0614851 4.44130017,17.0673657 L4.44130017,17.0673657 L4.44130017,17.0673657 Z" id="Shape"></path>
                    <path d="M44.5631841,17.0673833 C43.9281724,17.0628407 43.4881664,16.6010987 43.4944484,15.9472313 C43.5007305,15.2981738 43.9512066,14.8567398 44.5977354,14.8652906 C45.2175655,14.8741086 45.710969,15.3764668 45.6963109,15.9835721 C45.6816527,16.5986938 45.1872022,17.0719259 44.5631841,17.0673833 L44.5631841,17.0673833 L44.5631841,17.0673833 Z" id="Shape"></path>
                </g>
            </g>
        </g>
    </g>
</svg>