<?xml version="1.0" encoding="UTF-8" standalone="no"?>
<svg width="133px" height="130px" viewBox="0 0 133 130" version="1.1" xmlns="http://www.w3.org/2000/svg" xmlns:xlink="http://www.w3.org/1999/xlink">
    <!-- Generator: Sketch 41.2 (35397) - http://www.bohemiancoding.com/sketch -->
    <title>logo-storjshare-blue</title>
    <desc>Created with Sketch.</desc>
    <defs></defs>
    <g id="Page-1" stroke="none" stroke-width="1" fill="none" fill-rule="evenodd">
        <g id="Screen1" transform="translate(-434.000000, -69.000000)">
            <g id="Welcome">
                <g id="logo-storjshare-blue" transform="translate(434.000000, 69.000000)">
                    <path d="M80.0441183,116.333866 C79.7196786,115.883292 79.3035558,115.520727 78.7957372,115.246158 C78.2879186,114.97159 77.6743137,114.834308 76.9549041,114.834308 C76.5881462,114.834308 76.2143408,114.890629 75.833477,115.003272 C75.4526132,115.115916 75.1070194,115.288398 74.7966859,115.520725 C74.4863525,115.753053 74.2359734,116.045217 74.0455414,116.397228 C73.8551094,116.749238 73.7598949,117.164605 73.7598949,117.643339 C73.7598949,118.122074 73.8515829,118.51632 74.0349619,118.826089 C74.2183408,119.135859 74.4616668,119.399863 74.7649474,119.618109 C75.0682281,119.836356 75.4138216,120.015879 75.8017385,120.156683 C76.1896554,120.297487 76.595199,120.43829 77.0183811,120.579094 C77.5403058,120.748059 78.0657491,120.931102 78.5947267,121.128228 C79.1237043,121.325354 79.5997772,121.582318 80.0229593,121.899127 C80.4461413,122.215937 80.7917349,122.617223 81.0597503,123.102998 C81.3277658,123.588773 81.4617714,124.204782 81.4617714,124.951045 C81.4617714,125.697307 81.3171863,126.341477 81.0280118,126.883574 C80.7388374,127.42567 80.365032,127.872717 79.9065848,128.224728 C79.4481375,128.576738 78.9262207,128.837222 78.3408187,129.006188 C77.7554166,129.175153 77.1664971,129.259634 76.574042,129.259634 C76.1226476,129.259634 75.6712604,129.213873 75.219866,129.12235 C74.7684716,129.030828 74.338243,128.893546 73.9291669,128.7105 C73.5200907,128.527454 73.1392325,128.295131 72.7865808,128.013522 C72.4339291,127.731914 72.1236002,127.408069 71.8555848,127.041978 L73.1674428,126.070433 C73.4918825,126.605489 73.9467964,127.052536 74.5321984,127.411587 C75.1176004,127.770638 75.8052611,127.950161 76.5952011,127.950161 C76.9760649,127.950161 77.3639761,127.89032 77.7589461,127.770636 C78.1539161,127.650952 78.5100891,127.46791 78.8274757,127.221502 C79.1448622,126.975095 79.4058208,126.67237 79.6103587,126.313319 C79.8148967,125.954268 79.9171643,125.535382 79.9171643,125.056647 C79.9171643,124.535671 79.8148967,124.102705 79.6103587,123.757734 C79.4058208,123.412764 79.134283,123.12412 78.7957372,122.891792 C78.4571914,122.659465 78.0692804,122.465862 77.6319921,122.310978 C77.1947039,122.156093 76.7362635,122.001211 76.256657,121.846326 C75.7629446,121.691441 75.2762924,121.515439 74.7966859,121.318313 C74.3170794,121.121186 73.8868507,120.864223 73.5059869,120.547413 C73.1251231,120.230603 72.8183206,119.839877 72.5855703,119.375223 C72.35282,118.910569 72.2364468,118.34032 72.2364468,117.66446 C72.2364468,116.946358 72.3810318,116.326829 72.6702063,115.805853 C72.9593808,115.284877 73.3367126,114.85543 73.8022129,114.5175 C74.2677132,114.17957 74.7825772,113.933166 75.34682,113.778281 C75.9110627,113.623397 76.4682442,113.545955 77.0183811,113.545955 C78.0340182,113.545955 78.9015286,113.725478 79.6209382,114.084529 C80.3403479,114.44358 80.8834234,114.869506 81.2501813,115.362321 L80.0441183,116.333866 L80.0441183,116.333866 Z M83.7005466,113.926125 L85.2239947,113.926125 L85.2239947,120.410129 L93.3913693,120.410129 L93.3913693,113.926125 L94.9148173,113.926125 L94.9148173,128.879464 L93.3913693,128.879464 L93.3913693,121.804085 L85.2239947,121.804085 L85.2239947,128.879464 L83.7005466,128.879464 L83.7005466,113.926125 L83.7005466,113.926125 Z M97.7672037,128.879464 L96.0956426,128.879464 L102.570297,113.926125 L104.051427,113.926125 L110.483763,128.879464 L108.791043,128.879464 L107.140641,124.951045 L99.3964468,124.951045 L97.7672037,128.879464 L97.7672037,128.879464 Z M99.9677398,123.557089 L106.569348,123.557089 L103.268544,115.615768 L99.9677398,123.557089 L99.9677398,123.557089 Z M113.188037,128.879464 L111.664589,128.879464 L111.664589,113.926125 L116.065661,113.926125 C116.799177,113.926125 117.479784,113.996526 118.107505,114.13733 C118.735225,114.278135 119.2783,114.506938 119.736748,114.823748 C120.195195,115.140557 120.551368,115.552404 120.805277,116.059299 C121.059187,116.566195 121.186139,117.185724 121.186139,117.917906 C121.186139,118.467043 121.087398,118.96689 120.889913,119.417464 C120.692428,119.868038 120.424417,120.258764 120.085871,120.589654 C119.747325,120.920544 119.345308,121.184548 118.879808,121.381674 C118.414308,121.5788 117.906497,121.705522 117.35636,121.761844 L121.736273,128.879464 L119.874281,128.879464 L115.727117,121.888567 L113.188037,121.888567 L113.188037,128.879464 L113.188037,128.879464 Z M113.188037,120.579094 L115.832912,120.579094 C117.06014,120.579094 118.005233,120.35733 118.668218,119.913797 C119.331204,119.470263 119.662691,118.804973 119.662691,117.917906 C119.662691,117.425091 119.571003,117.009725 119.387624,116.671795 C119.204245,116.333864 118.95034,116.0593 118.6259,115.848094 C118.30146,115.636887 117.906496,115.482005 117.440996,115.383442 C116.975496,115.284879 116.460632,115.235598 115.896389,115.235598 L113.188037,115.235598 L113.188037,120.579094 L113.188037,120.579094 Z M124.842568,127.52775 L132.861829,127.52775 L132.861829,128.879464 L123.31912,128.879464 L123.31912,113.926125 L132.607921,113.926125 L132.607921,115.277839 L124.842568,115.277839 L124.842568,120.43125 L132.100105,120.43125 L132.100105,121.761844 L124.842568,121.761844 L124.842568,127.52775 L124.842568,127.52775 Z" id="SHARE" fill="#2684FF"></path>
                    <g id="Group" transform="translate(0.437582, 113.357143)" fill="#2683FF">
                        <path d="M4.73961629,3.54545089 C4.4178975,3.80958482 4.25729304,4.15896429 4.25729304,4.59384375 C4.25729304,5.02897768 4.45384231,5.37454018 4.84668594,5.63154911 C5.23952957,5.88804911 6.14681735,6.19137054 7.56829435,6.54049554 C8.99002628,6.889875 10.0936084,7.41381696 10.8795506,8.11257589 C11.6649829,8.81133482 12.0583364,9.83097321 12.0583364,11.1714911 C12.0583364,12.5125179 11.5545992,13.5993348 10.5473798,14.4334688 C9.54016032,15.2678571 8.21479106,15.6849241 6.57203679,15.6849241 C4.20044415,15.6849241 2.06440473,14.8077857 0.164428384,13.0537634 L2.15745335,10.6154866 C3.77165572,12.0272545 5.26451248,12.7331384 6.63627858,12.7331384 C7.25014455,12.7331384 7.73246781,12.600817 8.0827385,12.337192 C8.43249934,12.0733125 8.60788962,11.716808 8.60788962,11.2676786 C8.60788962,10.8182946 8.42204731,10.4620446 8.05061761,10.1981652 C7.67893298,9.93428571 6.94321156,9.66709821 5.84345335,9.39583929 C4.10000263,8.98233482 2.82510907,8.44388839 2.01826281,7.78075446 C1.2109067,7.117875 0.80735611,6.07686161 0.80735611,4.65771429 C0.80735611,3.23882143 1.31797635,2.144625 2.33972668,1.37436161 C3.36096715,0.604098214 4.63611564,0.21909375 6.16491721,0.21909375 C7.16474376,0.21909375 8.16508016,0.39009375 9.16541656,0.732348214 C10.1649882,1.07485714 11.0365861,1.55961161 11.7797004,2.187375 L10.0867254,4.62565179 C8.78633903,3.64163839 7.44363469,3.14975893 6.05784757,3.14975893 C5.50032063,3.14975893 5.06108016,3.28182589 4.73961629,3.54545089 L4.73961629,3.54545089 L4.73961629,3.54545089 Z" id="Shape"></path>
                        <polygon id="Shape" points="20.3508804 3.44951786 20.3508804 15.5139241 17.0080131 15.5139241 17.0080131 3.44951786 12.7649961 3.44951786 12.7649961 0.561602679 24.5941524 0.561602679 24.5941524 3.44951786"></polygon>
                        <path d="M38.4594166,13.4494554 C36.9448909,14.9256027 35.0803495,15.6638036 32.8657924,15.6638036 C30.6512352,15.6638036 28.7869488,14.9256027 27.2724231,13.4494554 C25.7581524,11.9735625 25.0010171,10.1376027 25.0010171,7.94132143 C25.0010171,5.74504018 25.7581524,3.90882589 27.2724231,2.4331875 C28.7869488,0.957294643 30.6509803,0.21909375 32.8657924,0.21909375 C35.0803495,0.21909375 36.9448909,0.957294643 38.4594166,2.4331875 C39.9734323,3.90933482 40.7308226,5.74529464 40.7308226,7.94132143 C40.7308226,10.1373482 39.9734323,11.973817 38.4594166,13.4494554 L38.4594166,13.4494554 L38.4594166,13.4494554 Z M37.3234586,7.95200893 C37.3234586,6.619125 36.8946702,5.48166964 36.0376032,4.54040625 C35.1805361,3.59914286 34.1266649,3.12863839 32.8770092,3.12863839 C31.6265887,3.12863839 30.5732273,3.59939732 29.7161603,4.54040625 C28.8590933,5.48141518 28.4305598,6.61887054 28.4305598,7.95200893 C28.4305598,9.28591071 28.8590933,10.4195491 29.7161603,11.3529241 C30.5734823,12.2875714 31.6265887,12.7545134 32.8770092,12.7545134 C34.1269198,12.7545134 35.1805361,12.2875714 36.0376032,11.3529241 C36.8949251,10.4195491 37.3234586,9.28565625 37.3234586,7.95200893 L37.3234586,7.95200893 L37.3234586,7.95200893 Z" id="Shape"></path>
                        <path d="M54.9387096,5.52441964 C54.9387096,7.92020089 53.988339,9.46759821 52.0886176,10.1663571 L55.8814323,15.5139241 L51.7668988,15.5139241 L48.4454455,10.7437366 L46.1307017,10.7437366 L46.1307017,15.5139241 L42.7878344,15.5139241 L42.7878344,0.561857143 L48.4668594,0.561857143 C50.7951143,0.561857143 52.4559685,0.954241071 53.448912,1.73824554 C54.4421104,2.52250446 54.9387096,3.78439286 54.9387096,5.52441964 L54.9387096,5.52441964 L54.9387096,5.52441964 Z M50.9098318,7.29981696 C51.3238344,6.9290625 51.5310907,6.34074107 51.5310907,5.53510714 C51.5310907,4.72947321 51.3169514,4.17652232 50.8884179,3.87727232 C50.4601393,3.57751339 49.7101419,3.42814286 48.6381708,3.42814286 L46.1309566,3.42814286 L46.1309566,7.85582143 L48.574184,7.85582143 C49.7165151,7.85582143 50.4950644,7.67082589 50.9098318,7.29981696 L50.9098318,7.29981696 L50.9098318,7.29981696 Z" id="Shape"></path>
                        <path d="M57.9817819,3.42788839 L57.9817819,0.561348214 L65.7820604,0.561348214 L65.7820604,10.3157277 C65.7820604,12.0985045 65.3211511,13.4318973 64.3998423,14.3161607 C63.4782786,15.2004241 62.2961787,15.6419196 60.8532878,15.6419196 C59.0529882,15.6419196 57.4811038,14.9505402 56.1383995,13.5672723 L57.8742024,11.1714911 C58.7746071,12.1415089 59.7173298,12.6262634 60.7031353,12.6262634 C61.1747516,12.6262634 61.5783022,12.4445759 61.914042,12.080692 C62.249272,11.7170625 62.4177792,11.1717455 62.4177792,10.4442321 L62.4177792,3.42814286 L57.9817819,3.42788839 L57.9817819,3.42788839 L57.9817819,3.42788839 L57.9817819,3.42788839 Z" id="Shape"></path>
                    </g>
                    <g id="Group" transform="translate(22.000000, 0.000000)" fill="#2683FF">
                        <path d="M88.9766111,29.3054207 C88.8962428,32.4697027 87.533572,34.8279797 84.9038643,36.4173616 C84.418511,36.7097137 84.2501415,37.0074966 84.2514884,37.5650474 C84.2681009,46.1971288 84.2667539,54.8296628 84.2537334,63.4599341 C84.2528354,63.9785649 84.3839391,64.2912822 84.8558228,64.5650794 C87.8981481,66.3372945 89.4377192,69.6061173 88.8913039,73.0423862 C88.3673379,76.3351945 85.7560386,79.0401306 82.3733823,79.6877403 C80.412214,80.0647207 78.5125566,79.7646751 76.7938403,78.7016176 C76.2698743,78.3784915 75.9008083,78.4355138 75.4096182,78.720625 C68.047604,83.019016 60.6775081,87.306093 53.2988815,91.576878 C52.7942218,91.8696827 52.605199,92.1909985 52.6065459,92.7847539 C52.6141787,96.9378739 49.4340148,100.551998 45.4613917,100.954774 C41.230153,101.385156 37.4892063,98.7051109 36.575072,94.5664727 C36.4349885,93.9301769 36.387845,93.2649174 36.3734775,92.6136872 C36.3627019,92.1724436 36.2414758,91.9022668 35.8522054,91.675083 C28.3716591,87.337772 20.8973985,82.9900523 13.4262809,78.6359967 C13.021745,78.3984041 12.7038633,78.3965938 12.2957355,78.6455004 C7.4139169,81.6074892 1.19187673,78.7681435 0.156516316,73.2347232 C-0.496757493,69.7391692 0.914852717,66.470799 4.01868903,64.6297952 C4.50898113,64.3378956 4.73077993,64.0441858 4.72988196,63.4400215 C4.70743269,54.807035 4.71102458,46.1758586 4.72449414,37.5442297 C4.72494312,37.0255989 4.59114546,36.7187649 4.12015974,36.4431574 C1.00420082,34.6188982 -0.461736629,31.4491855 0.136760957,27.8902735 C0.731217674,24.3548944 3.44353869,21.7612875 6.97346219,21.2544231 C8.86548681,20.9833412 10.6901636,21.3309053 12.3271645,22.3844591 C12.7074552,22.6297453 12.989867,22.6220518 13.3768925,22.3971307 C20.8260098,18.0521263 28.280964,13.719341 35.741755,9.3965119 C36.1929854,9.13493368 36.3689876,8.83488806 36.3703346,8.29906 C36.3824572,3.54494363 40.1094853,-0.0945236547 44.8319141,0.00187108937 C48.5126967,0.0760905168 51.956864,3.13854701 52.4790341,6.79973706 C52.5266265,7.13643983 52.6016071,7.34371115 52.6016071,7.80713002 C52.6016071,8.82221645 52.9724691,9.25259862 53.7563976,9.70425099 C60.9958388,13.8795463 68.2150756,18.0874258 75.4293736,22.3025462 C75.9250535,22.5930881 76.2851398,22.6048546 76.8014731,22.3097872 C81.7017001,19.4926168 87.6431244,22.1925748 88.8360787,27.7671779 C88.9483251,28.2858087 88.9375494,28.8315931 88.9766111,29.3054207 L88.9766111,29.3054207 L88.9766111,29.3054207 Z M25.0913715,58.9176146 C25.0172889,58.9823303 24.9674515,59.0366372 24.9054915,59.0714841 C20.8444182,61.4370021 16.7864879,63.8065931 12.7105981,66.1440525 C12.4852074,66.2730314 12.0474466,66.2463305 11.818464,66.1069428 C10.741348,65.4516395 9.59419017,65.0162792 8.3388269,64.9823374 C4.16236437,64.8746288 1.62245376,68.3131605 1.47967639,71.3004925 C1.31444975,74.7996669 3.94101455,78.3839222 8.18886576,78.3517906 C11.9140979,78.3237321 14.748992,75.3128671 14.7121752,71.5561875 C14.7063383,70.8850447 14.902096,70.505349 15.486226,70.170909 C19.8144456,67.686821 24.1251548,65.1728641 28.4318231,62.6525715 C28.8480326,62.4077379 29.1829757,62.3674603 29.6360021,62.5828777 C32.3218329,63.8554693 35.0992568,64.0708867 37.962437,63.2549255 C38.2470937,63.1743703 38.6251395,63.2558306 38.9097962,63.3784737 C39.7516439,63.7396146 40.5557768,64.1985079 41.4030124,64.5415464 C41.8861207,64.7388615 42.0491024,65.0045128 42.0482044,65.521786 C42.0333879,72.3259877 42.0347349,79.1283793 42.0468575,85.9321285 C42.0473065,86.412292 41.8973453,86.6856367 41.4631764,86.8951708 C39.1886162,88.0003162 37.4721449,90.8518809 37.9404367,93.9016658 C38.483709,97.4447383 42.0948989,100.120258 45.5799239,99.4332759 C48.6500863,98.8291117 50.6669288,96.7161208 51.0988528,93.4658529 C51.3911424,91.2614454 50.3391695,88.3515008 47.5267247,86.8942657 C47.1450871,86.6978558 46.9345129,86.4828909 46.9358599,86.0104209 C46.9497784,79.401724 46.9511254,72.7930271 46.9358599,66.1856878 C46.9358599,65.5982682 47.2034552,65.4778879 47.7139516,65.3869238 C49.0609079,65.1488786 50.4110071,64.8859427 51.7274324,64.5134879 C52.3232361,64.3451365 52.7937729,64.321151 53.3711681,64.5718678 C56.2576955,65.8231892 59.0678953,65.6091296 61.7564201,63.9735868 C62.1403027,63.7418774 62.4155307,63.7314686 62.8007602,63.9581999 C66.352235,66.0426796 69.9095467,68.1185608 73.4830217,70.1632155 C74.061315,70.4931299 74.2844607,70.8578913 74.2673993,71.5403479 C74.1641326,75.4947952 77.5849527,78.7251506 81.5732903,78.2965786 C85.4888923,77.8770578 88.2631733,74.0782903 87.3548758,70.2369824 C86.2660861,65.6335677 81.3191645,63.5563288 77.3231942,66.0444899 C76.9020458,66.3060681 76.5976337,66.3775722 76.1481993,66.1123735 C72.76689,64.1211205 69.3774989,62.1434443 65.9741893,60.1906588 C65.4708766,59.9023797 65.4039778,59.6344656 65.5642656,59.0909441 C66.5906463,55.6053464 65.8929229,52.5044225 63.4167683,49.8338808 C62.932762,49.3116294 60.6617936,45.6563226 60.3452589,44.9824645 C60.094725,44.4493518 60.2011346,44.1646932 60.7048962,43.8732462 C65.8650858,40.8945128 71.0176427,37.900845 76.1612199,34.893148 C76.5756334,34.6519349 76.8566983,34.6478618 77.2634791,34.9230168 C78.7132531,35.9037089 80.3385804,36.2141633 82.043827,35.9132126 C85.3631764,35.3266981 87.7688403,32.2990885 87.4729589,28.725242 C87.1510364,24.8481821 83.3782118,21.950004 79.609877,22.7908558 C76.3030993,23.528977 74.2256436,26.1338979 74.2638074,29.5584004 C74.2691952,30.141747 74.1084584,30.4743767 73.5921252,30.7721595 C68.3668327,33.7857398 63.1545608,36.8196852 57.9517175,39.8717329 C57.4825278,40.1464353 57.2261571,40.089413 56.8485603,39.7228415 C54.3970998,37.3423891 51.4472655,36.0055343 48.0821197,35.5814879 C46.9461865,35.4375746 46.9457376,35.4434579 46.9457376,34.2618303 C46.9452886,28.0681286 46.9605541,21.8744269 46.9273292,15.6811777 C46.9228393,14.8167929 47.1230868,14.3158118 47.9267707,13.8505827 C50.8079103,12.1820032 51.9029858,8.59005446 50.5847645,5.52714541 C49.2553186,2.43753547 45.8591928,0.787058324 42.6740901,1.76503505 C39.7749912,2.65521562 38.1590926,4.7193303 37.8748848,7.72340688 C37.6562289,10.0414063 38.7441206,12.6164584 41.3688895,14.0623796 C41.7720784,14.2841327 42.0531433,14.479185 42.0513473,15.0367358 C42.029796,21.8653757 42.031143,28.6926579 42.0482044,35.5212978 C42.0491024,36.0625565 41.8044053,36.2458423 41.3666445,36.4694057 C40.056056,37.1351178 38.6498337,37.7175593 37.5372478,38.6453021 C36.2535984,39.7128852 35.0539093,40.3301736 33.2669473,40.3301736 C33.0927409,40.3247429 32.9804946,40.3414875 32.7991044,40.3378671 C32.3564048,40.3283634 31.8589289,40.3098085 31.4965977,40.1011795 C26.2259577,37.0713072 20.9827058,33.9916535 15.7053309,30.9717374 C14.9514844,30.5409027 14.5878062,30.0788415 14.7135221,29.2035953 C14.7638085,28.8546735 14.6569499,28.480861 14.6003778,28.1215304 C14.0853915,24.8499923 10.9110645,22.1133772 7.07942275,22.7478628 C3.32051668,23.371487 0.933710105,26.8000625 1.55420798,30.4698511 C2.34532031,35.1565365 7.65143019,37.5288428 11.6545843,34.9651046 C12.1062637,34.6759204 12.4187576,34.6532925 12.8816615,34.9252796 C16.8488968,37.2577608 20.8327446,39.5626361 24.8112046,41.8765625 C25.4932134,42.2734554 26.1725284,42.6730637 26.8500474,43.0695041 C22.2798247,47.9507891 21.7666343,53.1936675 25.0913715,58.9176146 L25.0913715,58.9176146 L25.0913715,58.9176146 Z" id="Shape"></path>
                        <path d="M36.0416021,43.2104103 C37.0924501,43.3029065 37.6151681,42.9513313 38.3827832,42.2409966 C41.696788,39.1747038 45.6065739,38.2254956 49.8992654,39.6448178 C54.1197957,41.0403425 56.7369935,44.0262624 57.6038304,48.406809 C57.7734093,49.2644191 58.1125671,49.7803322 58.8819863,50.2172194 C61.082904,51.4650197 62.3497847,54.1644709 61.9150132,56.4131156 C61.3508026,59.3249488 59.4331177,61.3437 56.7216593,61.7716071 C55.2766305,62.0010514 53.843328,61.8362646 52.5723882,61.0576803 C52.0027655,60.7079012 51.5522088,60.746067 50.9636437,60.9912268 C47.188709,62.5717438 43.5328404,62.3032355 40.0578259,60.1277796 C39.5242838,59.7923687 39.0777861,59.7663261 38.5000452,59.9549105 C33.6034544,61.5475508 28.5106751,58.780748 27.2672469,53.9197602 C25.8425135,48.3452946 30.3088429,42.9558214 36.0416021,43.2104103 L36.0416021,43.2104103 L36.0416021,43.2104103 Z" id="Shape"></path>
                        <path d="M79,71.9895512 C79,70.8356334 79.8289568,69.9976297 80.9643189,70.000005 C82.0574017,70.0057057 82.9889687,70.9078424 82.9998948,71.9757745 C83.0117709,73.0038017 82.0165477,73.9980998 80.9804705,74 C79.871236,74 79.000475,73.1168657 79,71.9895512 L79,71.9895512 L79,71.9895512 Z" id="Shape"></path>
                        <path d="M43.0000089,7.98328113 C43.0042864,6.86438562 43.8759561,6.00095223 45.0023776,6.00000079 C46.1307003,5.99904935 46.995716,6.86057986 46.9999935,7.98375685 C47.0028452,9.06078892 46.06321,10.0131821 45.0061799,9.99986193 C43.9315642,9.98939607 42.9966819,9.04842017 43.0000089,7.98328113 L43.0000089,7.98328113 L43.0000089,7.98328113 Z" id="Shape"></path>
                        <path d="M9.99998344,71.9975905 C9.99570541,73.1239371 9.11680703,74.0089575 8.01259885,73.9999316 C6.96923382,73.9899555 6.00477475,73.0175256 6.00002138,71.9676623 C5.99479267,70.9187491 6.94926966,70 8.04444644,70 C9.1790762,70.0009501 10.0042615,70.843216 9.99998344,71.9975905 L9.99998344,71.9975905 L9.99998344,71.9975905 Z" id="Shape"></path>
                        <path d="M45.0245326,91.000066 C46.1500981,91.0078328 47.0052047,91.8820801 46.9999762,93.0199123 C46.9928463,94.1533756 46.124906,95.0072351 44.9841301,94.9999538 C43.8528607,94.9941287 42.9877724,94.1135709 43.0001308,92.9791367 C43.0129645,91.851013 43.8946892,90.9913284 45.0245326,91.000066 L45.0245326,91.000066 L45.0245326,91.000066 Z" id="Shape"></path>
                        <path d="M8.06685132,30.9999092 C6.92623874,31.0101048 6.0346599,30.1609519 6.00091678,29.0350595 C5.96717366,27.9378121 6.86920811,27.016804 7.99366201,27.0002968 C9.16754246,26.982333 9.98308046,27.7814787 9.99971439,28.9636899 C10.0172988,30.1517272 9.22124631,30.989228 8.06685132,30.9999092 L8.06685132,30.9999092 L8.06685132,30.9999092 Z" id="Shape"></path>
                        <path d="M80.9412936,30.9999411 C79.787905,30.9916903 78.9887103,30.1530159 79.0001206,28.9653793 C79.0115309,27.7864789 79.8297427,26.9846907 81.0040501,27.0002217 C82.1298638,27.0162381 83.0260458,27.9286847 82.9994218,29.0313861 C82.9727978,30.1486478 82.0747141,31.0081919 80.9412936,30.9999411 L80.9412936,30.9999411 L80.9412936,30.9999411 Z" id="Shape"></path>
                    </g>
                </g>
            </g>
        </g>
    </g>
</svg>